<svg width="1238" height="703" viewBox="0 0 1238 703" fill="none" xmlns="http://www.w3.org/2000/svg">
<g clip-path="url(#clip0_331_168)">
<mask id="mask0_331_168" style="mask-type:alpha" maskUnits="userSpaceOnUse" x="-8" y="0" width="1307" height="633">
<rect x="-8" width="1307" height="633" fill="url(#paint0_radial_331_168)"/>
</mask>
<g mask="url(#mask0_331_168)">
<g filter="url(#filter0_f_331_168)">
<rect x="242" width="190" height="576" fill="url(#paint1_linear_331_168)"/>
</g>
<path d="M102 74.5C102 80.299 97.0751 85 91 85C84.9249 85 80 80.299 80 74.5C80 68.701 84.9249 64 91 64C97.0751 64 102 68.701 102 74.5Z" fill="white"/>
<path d="M173 74.5C173 80.299 168.299 85 162.5 85C156.701 85 152 80.299 152 74.5C152 68.701 156.701 64 162.5 64C168.299 64 173 68.701 173 74.5Z" fill="white"/>
<path d="M244 74.5C244 80.299 239.299 85 233.5 85C227.701 85 223 80.299 223 74.5C223 68.701 227.701 64 233.5 64C239.299 64 244 68.701 244 74.5Z" fill="white"/>
<path d="M315 74.5C315 80.299 310.299 85 304.5 85C298.701 85 294 80.299 294 74.5C294 68.701 298.701 64 304.5 64C310.299 64 315 68.701 315 74.5Z" fill="white"/>
<path d="M386 74.5C386 80.299 381.299 85 375.5 85C369.701 85 365 80.299 365 74.5C365 68.701 369.701 64 375.5 64C381.299 64 386 68.701 386 74.5Z" fill="white"/>
<path d="M457 74.5C457 80.299 452.299 85 446.5 85C440.701 85 436 80.299 436 74.5C436 68.701 440.701 64 446.5 64C452.299 64 457 68.701 457 74.5Z" fill="white"/>
<path d="M528 74.5C528 80.299 523.299 85 517.5 85C511.701 85 507 80.299 507 74.5C507 68.701 511.701 64 517.5 64C523.299 64 528 68.701 528 74.5Z" fill="white"/>
<path d="M599 74.5C599 80.299 594.299 85 588.5 85C582.701 85 578 80.299 578 74.5C578 68.701 582.701 64 588.5 64C594.299 64 599 68.701 599 74.5Z" fill="white"/>
<path d="M670 74.5C670 80.299 665.299 85 659.5 85C653.701 85 649 80.299 649 74.5C649 68.701 653.701 64 659.5 64C665.299 64 670 68.701 670 74.5Z" fill="white"/>
<path d="M741 74.5C741 80.299 736.299 85 730.5 85C724.701 85 720 80.299 720 74.5C720 68.701 724.701 64 730.5 64C736.299 64 741 68.701 741 74.5Z" fill="white"/>
<path d="M812 74.5C812 80.299 807.299 85 801.5 85C795.701 85 791 80.299 791 74.5C791 68.701 795.701 64 801.5 64C807.299 64 812 68.701 812 74.5Z" fill="white"/>
<path d="M883 74.5C883 80.299 878.299 85 872.5 85C866.701 85 862 80.299 862 74.5C862 68.701 866.701 64 872.5 64C878.299 64 883 68.701 883 74.5Z" fill="white"/>
<path d="M954 74.5C954 80.299 949.299 85 943.5 85C937.701 85 933 80.299 933 74.5C933 68.701 937.701 64 943.5 64C949.299 64 954 68.701 954 74.5Z" fill="white"/>
<path d="M1025 74.5C1025 80.299 1020.3 85 1014.5 85C1008.7 85 1004 80.299 1004 74.5C1004 68.701 1008.7 64 1014.5 64C1020.3 64 1025 68.701 1025 74.5Z" fill="white"/>
<path d="M1096 74.5C1096 80.299 1091.3 85 1085.5 85C1079.7 85 1075 80.299 1075 74.5C1075 68.701 1079.7 64 1085.5 64C1091.3 64 1096 68.701 1096 74.5Z" fill="white"/>
<path d="M1167 74.5C1167 80.299 1162.3 85 1156.5 85C1150.7 85 1146 80.299 1146 74.5C1146 68.701 1150.7 64 1156.5 64C1162.3 64 1167 68.701 1167 74.5Z" fill="white"/>
<path d="M1238 74.5C1238 80.299 1233.3 85 1227.5 85C1221.7 85 1217 80.299 1217 74.5C1217 68.701 1221.7 64 1227.5 64C1233.3 64 1238 68.701 1238 74.5Z" fill="white"/>
<path d="M102 145.5C102 151.299 97.0751 156 91 156C84.9249 156 80 151.299 80 145.5C80 139.701 84.9249 135 91 135C97.0751 135 102 139.701 102 145.5Z" fill="white"/>
<path d="M173 145.5C173 151.299 168.299 156 162.5 156C156.701 156 152 151.299 152 145.5C152 139.701 156.701 135 162.5 135C168.299 135 173 139.701 173 145.5Z" fill="white"/>
<path d="M244 145.5C244 151.299 239.299 156 233.5 156C227.701 156 223 151.299 223 145.5C223 139.701 227.701 135 233.5 135C239.299 135 244 139.701 244 145.5Z" fill="white"/>
<path d="M315 145.5C315 151.299 310.299 156 304.5 156C298.701 156 294 151.299 294 145.5C294 139.701 298.701 135 304.5 135C310.299 135 315 139.701 315 145.5Z" fill="white"/>
<path d="M386 145.5C386 151.299 381.299 156 375.5 156C369.701 156 365 151.299 365 145.5C365 139.701 369.701 135 375.5 135C381.299 135 386 139.701 386 145.5Z" fill="white"/>
<path d="M457 145.5C457 151.299 452.299 156 446.5 156C440.701 156 436 151.299 436 145.5C436 139.701 440.701 135 446.5 135C452.299 135 457 139.701 457 145.5Z" fill="white"/>
<path d="M528 145.5C528 151.299 523.299 156 517.5 156C511.701 156 507 151.299 507 145.5C507 139.701 511.701 135 517.5 135C523.299 135 528 139.701 528 145.5Z" fill="white"/>
<path d="M599 145.5C599 151.299 594.299 156 588.5 156C582.701 156 578 151.299 578 145.5C578 139.701 582.701 135 588.5 135C594.299 135 599 139.701 599 145.5Z" fill="white"/>
<path d="M670 145.5C670 151.299 665.299 156 659.5 156C653.701 156 649 151.299 649 145.5C649 139.701 653.701 135 659.5 135C665.299 135 670 139.701 670 145.5Z" fill="white"/>
<path d="M741 145.5C741 151.299 736.299 156 730.5 156C724.701 156 720 151.299 720 145.5C720 139.701 724.701 135 730.5 135C736.299 135 741 139.701 741 145.5Z" fill="white"/>
<path d="M812 145.5C812 151.299 807.299 156 801.5 156C795.701 156 791 151.299 791 145.5C791 139.701 795.701 135 801.5 135C807.299 135 812 139.701 812 145.5Z" fill="white"/>
<path d="M883 145.5C883 151.299 878.299 156 872.5 156C866.701 156 862 151.299 862 145.5C862 139.701 866.701 135 872.5 135C878.299 135 883 139.701 883 145.5Z" fill="white"/>
<path d="M954 145.5C954 151.299 949.299 156 943.5 156C937.701 156 933 151.299 933 145.5C933 139.701 937.701 135 943.5 135C949.299 135 954 139.701 954 145.5Z" fill="white"/>
<path d="M1025 145.5C1025 151.299 1020.3 156 1014.5 156C1008.7 156 1004 151.299 1004 145.5C1004 139.701 1008.7 135 1014.5 135C1020.3 135 1025 139.701 1025 145.5Z" fill="white"/>
<path d="M1096 145.5C1096 151.299 1091.3 156 1085.5 156C1079.7 156 1075 151.299 1075 145.5C1075 139.701 1079.7 135 1085.5 135C1091.3 135 1096 139.701 1096 145.5Z" fill="white"/>
<path d="M1167 145.5C1167 151.299 1162.3 156 1156.5 156C1150.7 156 1146 151.299 1146 145.5C1146 139.701 1150.7 135 1156.5 135C1162.3 135 1167 139.701 1167 145.5Z" fill="white"/>
<path d="M1238 145.5C1238 151.299 1233.3 156 1227.5 156C1221.7 156 1217 151.299 1217 145.5C1217 139.701 1221.7 135 1227.5 135C1233.3 135 1238 139.701 1238 145.5Z" fill="white"/>
<path d="M101.5 216.5C101.5 222.299 96.799 227 91 227C85.201 227 80.5 222.299 80.5 216.5C80.5 210.701 85.201 206 91 206C96.799 206 101.5 210.701 101.5 216.5Z" fill="white"/>
<path d="M172.5 216.5C172.5 222.299 167.799 227 162 227C156.201 227 151.5 222.299 151.5 216.5C151.5 210.701 156.201 206 162 206C167.799 206 172.5 210.701 172.5 216.5Z" fill="white"/>
<path d="M243.5 216.5C243.5 222.299 238.799 227 233 227C227.201 227 222.5 222.299 222.5 216.5C222.5 210.701 227.201 206 233 206C238.799 206 243.5 210.701 243.5 216.5Z" fill="white"/>
<path d="M314.5 216.5C314.5 222.299 309.799 227 304 227C298.201 227 293.5 222.299 293.5 216.5C293.5 210.701 298.201 206 304 206C309.799 206 314.5 210.701 314.5 216.5Z" fill="white"/>
<path d="M385.5 216.5C385.5 222.299 380.799 227 375 227C369.201 227 364.5 222.299 364.5 216.5C364.5 210.701 369.201 206 375 206C380.799 206 385.5 210.701 385.5 216.5Z" fill="white"/>
<path d="M456.5 216.5C456.5 222.299 451.799 227 446 227C440.201 227 435.5 222.299 435.5 216.5C435.5 210.701 440.201 206 446 206C451.799 206 456.5 210.701 456.5 216.5Z" fill="white"/>
<path d="M527.5 216.5C527.5 222.299 522.799 227 517 227C511.201 227 506.5 222.299 506.5 216.5C506.5 210.701 511.201 206 517 206C522.799 206 527.5 210.701 527.5 216.5Z" fill="white"/>
<path d="M598.5 216.5C598.5 222.299 593.799 227 588 227C582.201 227 577.5 222.299 577.5 216.5C577.5 210.701 582.201 206 588 206C593.799 206 598.5 210.701 598.5 216.5Z" fill="white"/>
<path d="M669.5 216.5C669.5 222.299 664.799 227 659 227C653.201 227 648.5 222.299 648.5 216.5C648.5 210.701 653.201 206 659 206C664.799 206 669.5 210.701 669.5 216.5Z" fill="white"/>
<path d="M740.5 216.5C740.5 222.299 735.799 227 730 227C724.201 227 719.5 222.299 719.5 216.5C719.5 210.701 724.201 206 730 206C735.799 206 740.5 210.701 740.5 216.5Z" fill="white"/>
<path d="M811.5 216.5C811.5 222.299 806.799 227 801 227C795.201 227 790.5 222.299 790.5 216.5C790.5 210.701 795.201 206 801 206C806.799 206 811.5 210.701 811.5 216.5Z" fill="white"/>
<path d="M882.5 216.5C882.5 222.299 877.799 227 872 227C866.201 227 861.5 222.299 861.5 216.5C861.5 210.701 866.201 206 872 206C877.799 206 882.5 210.701 882.5 216.5Z" fill="white"/>
<path d="M953.5 216.5C953.5 222.299 948.799 227 943 227C937.201 227 932.5 222.299 932.5 216.5C932.5 210.701 937.201 206 943 206C948.799 206 953.5 210.701 953.5 216.5Z" fill="white"/>
<path d="M1024.5 216.5C1024.5 222.299 1019.8 227 1014 227C1008.2 227 1003.5 222.299 1003.5 216.5C1003.5 210.701 1008.2 206 1014 206C1019.8 206 1024.5 210.701 1024.5 216.5Z" fill="white"/>
<path d="M1095.5 216.5C1095.5 222.299 1090.8 227 1085 227C1079.2 227 1074.5 222.299 1074.5 216.5C1074.5 210.701 1079.2 206 1085 206C1090.8 206 1095.5 210.701 1095.5 216.5Z" fill="white"/>
<path d="M1166.5 216.5C1166.5 222.299 1161.8 227 1156 227C1150.2 227 1145.5 222.299 1145.5 216.5C1145.5 210.701 1150.2 206 1156 206C1161.8 206 1166.5 210.701 1166.5 216.5Z" fill="white"/>
<path d="M1237.5 216.5C1237.5 222.299 1232.8 227 1227 227C1221.2 227 1216.5 222.299 1216.5 216.5C1216.5 210.701 1221.2 206 1227 206C1232.8 206 1237.5 210.701 1237.5 216.5Z" fill="white"/>
<path d="M102 287.5C102 293.299 97.0751 298 91 298C84.9249 298 80 293.299 80 287.5C80 281.701 84.9249 277 91 277C97.0751 277 102 281.701 102 287.5Z" fill="white"/>
<path d="M173 287.5C173 293.299 168.299 298 162.5 298C156.701 298 152 293.299 152 287.5C152 281.701 156.701 277 162.5 277C168.299 277 173 281.701 173 287.5Z" fill="white"/>
<path d="M244 287.5C244 293.299 239.299 298 233.5 298C227.701 298 223 293.299 223 287.5C223 281.701 227.701 277 233.5 277C239.299 277 244 281.701 244 287.5Z" fill="white"/>
<path d="M315 287.5C315 293.299 310.299 298 304.5 298C298.701 298 294 293.299 294 287.5C294 281.701 298.701 277 304.5 277C310.299 277 315 281.701 315 287.5Z" fill="white"/>
<path d="M386 287.5C386 293.299 381.299 298 375.5 298C369.701 298 365 293.299 365 287.5C365 281.701 369.701 277 375.5 277C381.299 277 386 281.701 386 287.5Z" fill="white"/>
<path d="M457 287.5C457 293.299 452.299 298 446.5 298C440.701 298 436 293.299 436 287.5C436 281.701 440.701 277 446.5 277C452.299 277 457 281.701 457 287.5Z" fill="white"/>
<path d="M528 287.5C528 293.299 523.299 298 517.5 298C511.701 298 507 293.299 507 287.5C507 281.701 511.701 277 517.5 277C523.299 277 528 281.701 528 287.5Z" fill="white"/>
<path d="M599 287.5C599 293.299 594.299 298 588.5 298C582.701 298 578 293.299 578 287.5C578 281.701 582.701 277 588.5 277C594.299 277 599 281.701 599 287.5Z" fill="white"/>
<path d="M670 287.5C670 293.299 665.299 298 659.5 298C653.701 298 649 293.299 649 287.5C649 281.701 653.701 277 659.5 277C665.299 277 670 281.701 670 287.5Z" fill="white"/>
<path d="M741 287.5C741 293.299 736.299 298 730.5 298C724.701 298 720 293.299 720 287.5C720 281.701 724.701 277 730.5 277C736.299 277 741 281.701 741 287.5Z" fill="white"/>
<path d="M812 287.5C812 293.299 807.299 298 801.5 298C795.701 298 791 293.299 791 287.5C791 281.701 795.701 277 801.5 277C807.299 277 812 281.701 812 287.5Z" fill="white"/>
<path d="M883 287.5C883 293.299 878.299 298 872.5 298C866.701 298 862 293.299 862 287.5C862 281.701 866.701 277 872.5 277C878.299 277 883 281.701 883 287.5Z" fill="white"/>
<path d="M954 287.5C954 293.299 949.299 298 943.5 298C937.701 298 933 293.299 933 287.5C933 281.701 937.701 277 943.5 277C949.299 277 954 281.701 954 287.5Z" fill="white"/>
<path d="M1025 287.5C1025 293.299 1020.3 298 1014.5 298C1008.7 298 1004 293.299 1004 287.5C1004 281.701 1008.7 277 1014.5 277C1020.3 277 1025 281.701 1025 287.5Z" fill="white"/>
<path d="M1096 287.5C1096 293.299 1091.3 298 1085.5 298C1079.7 298 1075 293.299 1075 287.5C1075 281.701 1079.7 277 1085.5 277C1091.3 277 1096 281.701 1096 287.5Z" fill="white"/>
<path d="M1167 287.5C1167 293.299 1162.3 298 1156.5 298C1150.7 298 1146 293.299 1146 287.5C1146 281.701 1150.7 277 1156.5 277C1162.3 277 1167 281.701 1167 287.5Z" fill="white"/>
<path d="M1238 287.5C1238 293.299 1233.3 298 1227.5 298C1221.7 298 1217 293.299 1217 287.5C1217 281.701 1221.7 277 1227.5 277C1233.3 277 1238 281.701 1238 287.5Z" fill="white"/>
<path d="M101.5 358.5C101.5 364.299 96.799 369 91 369C85.201 369 80.5 364.299 80.5 358.5C80.5 352.701 85.201 348 91 348C96.799 348 101.5 352.701 101.5 358.5Z" fill="white"/>
<path d="M172.5 358.5C172.5 364.299 167.799 369 162 369C156.201 369 151.5 364.299 151.5 358.5C151.5 352.701 156.201 348 162 348C167.799 348 172.5 352.701 172.5 358.5Z" fill="white"/>
<path d="M243.5 358.5C243.5 364.299 238.799 369 233 369C227.201 369 222.5 364.299 222.5 358.5C222.5 352.701 227.201 348 233 348C238.799 348 243.5 352.701 243.5 358.5Z" fill="white"/>
<path d="M314.5 358.5C314.5 364.299 309.799 369 304 369C298.201 369 293.5 364.299 293.5 358.5C293.5 352.701 298.201 348 304 348C309.799 348 314.5 352.701 314.5 358.5Z" fill="white"/>
<path d="M385.5 358.5C385.5 364.299 380.799 369 375 369C369.201 369 364.5 364.299 364.5 358.5C364.5 352.701 369.201 348 375 348C380.799 348 385.5 352.701 385.5 358.5Z" fill="white"/>
<path d="M456.5 358.5C456.5 364.299 451.799 369 446 369C440.201 369 435.5 364.299 435.5 358.5C435.5 352.701 440.201 348 446 348C451.799 348 456.5 352.701 456.5 358.5Z" fill="white"/>
<path d="M527.5 358.5C527.5 364.299 522.799 369 517 369C511.201 369 506.5 364.299 506.5 358.5C506.5 352.701 511.201 348 517 348C522.799 348 527.5 352.701 527.5 358.5Z" fill="white"/>
<path d="M598.5 358.5C598.5 364.299 593.799 369 588 369C582.201 369 577.5 364.299 577.5 358.5C577.5 352.701 582.201 348 588 348C593.799 348 598.5 352.701 598.5 358.5Z" fill="white"/>
<path d="M669.5 358.5C669.5 364.299 664.799 369 659 369C653.201 369 648.5 364.299 648.5 358.5C648.5 352.701 653.201 348 659 348C664.799 348 669.5 352.701 669.5 358.5Z" fill="white"/>
<path d="M740.5 358.5C740.5 364.299 735.799 369 730 369C724.201 369 719.5 364.299 719.5 358.5C719.5 352.701 724.201 348 730 348C735.799 348 740.5 352.701 740.5 358.5Z" fill="white"/>
<path d="M811.5 358.5C811.5 364.299 806.799 369 801 369C795.201 369 790.5 364.299 790.5 358.5C790.5 352.701 795.201 348 801 348C806.799 348 811.5 352.701 811.5 358.5Z" fill="white"/>
<path d="M882.5 358.5C882.5 364.299 877.799 369 872 369C866.201 369 861.5 364.299 861.5 358.5C861.5 352.701 866.201 348 872 348C877.799 348 882.5 352.701 882.5 358.5Z" fill="white"/>
<path d="M953.5 358.5C953.5 364.299 948.799 369 943 369C937.201 369 932.5 364.299 932.5 358.5C932.5 352.701 937.201 348 943 348C948.799 348 953.5 352.701 953.5 358.5Z" fill="white"/>
<path d="M1024.5 358.5C1024.5 364.299 1019.8 369 1014 369C1008.2 369 1003.5 364.299 1003.5 358.5C1003.5 352.701 1008.2 348 1014 348C1019.8 348 1024.5 352.701 1024.5 358.5Z" fill="white"/>
<path d="M1095.5 358.5C1095.5 364.299 1090.8 369 1085 369C1079.2 369 1074.5 364.299 1074.5 358.5C1074.5 352.701 1079.2 348 1085 348C1090.8 348 1095.5 352.701 1095.5 358.5Z" fill="white"/>
<path d="M1166.5 358.5C1166.5 364.299 1161.8 369 1156 369C1150.2 369 1145.5 364.299 1145.5 358.5C1145.5 352.701 1150.2 348 1156 348C1161.8 348 1166.5 352.701 1166.5 358.5Z" fill="white"/>
<path d="M1237.5 358.5C1237.5 364.299 1232.8 369 1227 369C1221.2 369 1216.5 364.299 1216.5 358.5C1216.5 352.701 1221.2 348 1227 348C1232.8 348 1237.5 352.701 1237.5 358.5Z" fill="white"/>
<path d="M102 429.5C102 435.299 97.0751 440 91 440C84.9249 440 80 435.299 80 429.5C80 423.701 84.9249 419 91 419C97.0751 419 102 423.701 102 429.5Z" fill="white"/>
<path d="M173 429.5C173 435.299 168.299 440 162.5 440C156.701 440 152 435.299 152 429.5C152 423.701 156.701 419 162.5 419C168.299 419 173 423.701 173 429.5Z" fill="white"/>
<path d="M244 429.5C244 435.299 239.299 440 233.5 440C227.701 440 223 435.299 223 429.5C223 423.701 227.701 419 233.5 419C239.299 419 244 423.701 244 429.5Z" fill="white"/>
<path d="M315 429.5C315 435.299 310.299 440 304.5 440C298.701 440 294 435.299 294 429.5C294 423.701 298.701 419 304.5 419C310.299 419 315 423.701 315 429.5Z" fill="white"/>
<path d="M386 429.5C386 435.299 381.299 440 375.5 440C369.701 440 365 435.299 365 429.5C365 423.701 369.701 419 375.5 419C381.299 419 386 423.701 386 429.5Z" fill="white"/>
<path d="M457 429.5C457 435.299 452.299 440 446.5 440C440.701 440 436 435.299 436 429.5C436 423.701 440.701 419 446.5 419C452.299 419 457 423.701 457 429.5Z" fill="white"/>
<path d="M528 429.5C528 435.299 523.299 440 517.5 440C511.701 440 507 435.299 507 429.5C507 423.701 511.701 419 517.5 419C523.299 419 528 423.701 528 429.5Z" fill="white"/>
<path d="M599 429.5C599 435.299 594.299 440 588.5 440C582.701 440 578 435.299 578 429.5C578 423.701 582.701 419 588.5 419C594.299 419 599 423.701 599 429.5Z" fill="white"/>
<path d="M670 429.5C670 435.299 665.299 440 659.5 440C653.701 440 649 435.299 649 429.5C649 423.701 653.701 419 659.5 419C665.299 419 670 423.701 670 429.5Z" fill="white"/>
<path d="M741 429.5C741 435.299 736.299 440 730.5 440C724.701 440 720 435.299 720 429.5C720 423.701 724.701 419 730.5 419C736.299 419 741 423.701 741 429.5Z" fill="white"/>
<path d="M812 429.5C812 435.299 807.299 440 801.5 440C795.701 440 791 435.299 791 429.5C791 423.701 795.701 419 801.5 419C807.299 419 812 423.701 812 429.5Z" fill="white"/>
<path d="M883 429.5C883 435.299 878.299 440 872.5 440C866.701 440 862 435.299 862 429.5C862 423.701 866.701 419 872.5 419C878.299 419 883 423.701 883 429.5Z" fill="white"/>
<path d="M954 429.5C954 435.299 949.299 440 943.5 440C937.701 440 933 435.299 933 429.5C933 423.701 937.701 419 943.5 419C949.299 419 954 423.701 954 429.5Z" fill="white"/>
<path d="M1025 429.5C1025 435.299 1020.3 440 1014.5 440C1008.7 440 1004 435.299 1004 429.5C1004 423.701 1008.7 419 1014.5 419C1020.3 419 1025 423.701 1025 429.5Z" fill="white"/>
<path d="M1096 429.5C1096 435.299 1091.3 440 1085.5 440C1079.7 440 1075 435.299 1075 429.5C1075 423.701 1079.7 419 1085.5 419C1091.3 419 1096 423.701 1096 429.5Z" fill="white"/>
<path d="M1167 429.5C1167 435.299 1162.3 440 1156.5 440C1150.7 440 1146 435.299 1146 429.5C1146 423.701 1150.7 419 1156.5 419C1162.3 419 1167 423.701 1167 429.5Z" fill="white"/>
<path d="M1238 429.5C1238 435.299 1233.3 440 1227.5 440C1221.7 440 1217 435.299 1217 429.5C1217 423.701 1221.7 419 1227.5 419C1233.3 419 1238 423.701 1238 429.5Z" fill="white"/>
<path d="M101.5 500.5C101.5 506.299 96.799 511 91 511C85.201 511 80.5 506.299 80.5 500.5C80.5 494.701 85.201 490 91 490C96.799 490 101.5 494.701 101.5 500.5Z" fill="white"/>
<path d="M172.5 500.5C172.5 506.299 167.799 511 162 511C156.201 511 151.5 506.299 151.5 500.5C151.5 494.701 156.201 490 162 490C167.799 490 172.5 494.701 172.5 500.5Z" fill="white"/>
<path d="M243.5 500.5C243.5 506.299 238.799 511 233 511C227.201 511 222.5 506.299 222.5 500.5C222.5 494.701 227.201 490 233 490C238.799 490 243.5 494.701 243.5 500.5Z" fill="white"/>
<path d="M314.5 500.5C314.5 506.299 309.799 511 304 511C298.201 511 293.5 506.299 293.5 500.5C293.5 494.701 298.201 490 304 490C309.799 490 314.5 494.701 314.5 500.5Z" fill="white"/>
<path d="M385.5 500.5C385.5 506.299 380.799 511 375 511C369.201 511 364.5 506.299 364.5 500.5C364.5 494.701 369.201 490 375 490C380.799 490 385.5 494.701 385.5 500.5Z" fill="white"/>
<path d="M456.5 500.5C456.5 506.299 451.799 511 446 511C440.201 511 435.5 506.299 435.5 500.5C435.5 494.701 440.201 490 446 490C451.799 490 456.5 494.701 456.5 500.5Z" fill="white"/>
<path d="M527.5 500.5C527.5 506.299 522.799 511 517 511C511.201 511 506.5 506.299 506.5 500.5C506.5 494.701 511.201 490 517 490C522.799 490 527.5 494.701 527.5 500.5Z" fill="white"/>
<path d="M598.5 500.5C598.5 506.299 593.799 511 588 511C582.201 511 577.5 506.299 577.5 500.5C577.5 494.701 582.201 490 588 490C593.799 490 598.5 494.701 598.5 500.5Z" fill="white"/>
<path d="M669.5 500.5C669.5 506.299 664.799 511 659 511C653.201 511 648.5 506.299 648.5 500.5C648.5 494.701 653.201 490 659 490C664.799 490 669.5 494.701 669.5 500.5Z" fill="white"/>
<path d="M740.5 500.5C740.5 506.299 735.799 511 730 511C724.201 511 719.5 506.299 719.5 500.5C719.5 494.701 724.201 490 730 490C735.799 490 740.5 494.701 740.5 500.5Z" fill="white"/>
<path d="M811.5 500.5C811.5 506.299 806.799 511 801 511C795.201 511 790.5 506.299 790.5 500.5C790.5 494.701 795.201 490 801 490C806.799 490 811.5 494.701 811.5 500.5Z" fill="white"/>
<path d="M882.5 500.5C882.5 506.299 877.799 511 872 511C866.201 511 861.5 506.299 861.5 500.5C861.5 494.701 866.201 490 872 490C877.799 490 882.5 494.701 882.5 500.5Z" fill="white"/>
<path d="M953.5 500.5C953.5 506.299 948.799 511 943 511C937.201 511 932.5 506.299 932.5 500.5C932.5 494.701 937.201 490 943 490C948.799 490 953.5 494.701 953.5 500.5Z" fill="white"/>
<path d="M1024.5 500.5C1024.5 506.299 1019.8 511 1014 511C1008.2 511 1003.5 506.299 1003.5 500.5C1003.5 494.701 1008.2 490 1014 490C1019.8 490 1024.5 494.701 1024.5 500.5Z" fill="white"/>
<path d="M1095.5 500.5C1095.5 506.299 1090.8 511 1085 511C1079.2 511 1074.5 506.299 1074.5 500.5C1074.5 494.701 1079.2 490 1085 490C1090.8 490 1095.5 494.701 1095.5 500.5Z" fill="white"/>
<path d="M1166.5 500.5C1166.5 506.299 1161.8 511 1156 511C1150.2 511 1145.5 506.299 1145.5 500.5C1145.5 494.701 1150.2 490 1156 490C1161.8 490 1166.5 494.701 1166.5 500.5Z" fill="white"/>
<path d="M1237.5 500.5C1237.5 506.299 1232.8 511 1227 511C1221.2 511 1216.5 506.299 1216.5 500.5C1216.5 494.701 1221.2 490 1227 490C1232.8 490 1237.5 494.701 1237.5 500.5Z" fill="white"/>
<path d="M101.5 571.5C101.5 577.299 96.799 582 91 582C85.201 582 80.5 577.299 80.5 571.5C80.5 565.701 85.201 561 91 561C96.799 561 101.5 565.701 101.5 571.5Z" fill="white"/>
<path d="M172.5 571.5C172.5 577.299 167.799 582 162 582C156.201 582 151.5 577.299 151.5 571.5C151.5 565.701 156.201 561 162 561C167.799 561 172.5 565.701 172.5 571.5Z" fill="white"/>
<path d="M243.5 571.5C243.5 577.299 238.799 582 233 582C227.201 582 222.5 577.299 222.5 571.5C222.5 565.701 227.201 561 233 561C238.799 561 243.5 565.701 243.5 571.5Z" fill="white"/>
<path d="M314.5 571.5C314.5 577.299 309.799 582 304 582C298.201 582 293.5 577.299 293.5 571.5C293.5 565.701 298.201 561 304 561C309.799 561 314.5 565.701 314.5 571.5Z" fill="white"/>
<path d="M385.5 571.5C385.5 577.299 380.799 582 375 582C369.201 582 364.5 577.299 364.5 571.5C364.5 565.701 369.201 561 375 561C380.799 561 385.5 565.701 385.5 571.5Z" fill="white"/>
<path d="M456.5 571.5C456.5 577.299 451.799 582 446 582C440.201 582 435.5 577.299 435.5 571.5C435.5 565.701 440.201 561 446 561C451.799 561 456.5 565.701 456.5 571.5Z" fill="white"/>
<path d="M527.5 571.5C527.5 577.299 522.799 582 517 582C511.201 582 506.5 577.299 506.5 571.5C506.5 565.701 511.201 561 517 561C522.799 561 527.5 565.701 527.5 571.5Z" fill="white"/>
<path d="M598.5 571.5C598.5 577.299 593.799 582 588 582C582.201 582 577.5 577.299 577.5 571.5C577.5 565.701 582.201 561 588 561C593.799 561 598.5 565.701 598.5 571.5Z" fill="white"/>
<path d="M669.5 571.5C669.5 577.299 664.799 582 659 582C653.201 582 648.5 577.299 648.5 571.5C648.5 565.701 653.201 561 659 561C664.799 561 669.5 565.701 669.5 571.5Z" fill="white"/>
<path d="M740.5 571.5C740.5 577.299 735.799 582 730 582C724.201 582 719.5 577.299 719.5 571.5C719.5 565.701 724.201 561 730 561C735.799 561 740.5 565.701 740.5 571.5Z" fill="white"/>
<path d="M811.5 571.5C811.5 577.299 806.799 582 801 582C795.201 582 790.5 577.299 790.5 571.5C790.5 565.701 795.201 561 801 561C806.799 561 811.5 565.701 811.5 571.5Z" fill="white"/>
<path d="M882.5 571.5C882.5 577.299 877.799 582 872 582C866.201 582 861.5 577.299 861.5 571.5C861.5 565.701 866.201 561 872 561C877.799 561 882.5 565.701 882.5 571.5Z" fill="white"/>
<path d="M953.5 571.5C953.5 577.299 948.799 582 943 582C937.201 582 932.5 577.299 932.5 571.5C932.5 565.701 937.201 561 943 561C948.799 561 953.5 565.701 953.5 571.5Z" fill="white"/>
<path d="M1024.5 571.5C1024.5 577.299 1019.8 582 1014 582C1008.2 582 1003.5 577.299 1003.5 571.5C1003.5 565.701 1008.2 561 1014 561C1019.8 561 1024.5 565.701 1024.5 571.5Z" fill="white"/>
<path d="M1095.5 571.5C1095.5 577.299 1090.8 582 1085 582C1079.2 582 1074.5 577.299 1074.5 571.5C1074.5 565.701 1079.2 561 1085 561C1090.8 561 1095.5 565.701 1095.5 571.5Z" fill="white"/>
<path d="M1166.5 571.5C1166.5 577.299 1161.8 582 1156 582C1150.2 582 1145.5 577.299 1145.5 571.5C1145.5 565.701 1150.2 561 1156 561C1161.8 561 1166.5 565.701 1166.5 571.5Z" fill="white"/>
<path d="M1237.5 571.5C1237.5 577.299 1232.8 582 1227 582C1221.2 582 1216.5 577.299 1216.5 571.5C1216.5 565.701 1221.2 561 1227 561C1232.8 561 1237.5 565.701 1237.5 571.5Z" fill="white"/>
</g>
</g>
<defs>
<filter id="filter0_f_331_168" x="119.7" y="-122.3" width="434.6" height="820.6" filterUnits="userSpaceOnUse" color-interpolation-filters="sRGB">
<feFlood flood-opacity="0" result="BackgroundImageFix"/>
<feBlend mode="normal" in="SourceGraphic" in2="BackgroundImageFix" result="shape"/>
<feGaussianBlur stdDeviation="61.15" result="effect1_foregroundBlur_331_168"/>
</filter>
<radialGradient id="paint0_radial_331_168" cx="0" cy="0" r="1" gradientUnits="userSpaceOnUse" gradientTransform="translate(434 6.21262e-06) rotate(66.4039) scale(690.754 702.678)">
<stop stop-color="#D9D9D9"/>
<stop offset="1" stop-color="#737373" stop-opacity="0"/>
</radialGradient>
<linearGradient id="paint1_linear_331_168" x1="337" y1="0" x2="337" y2="576" gradientUnits="userSpaceOnUse">
<stop stop-color="#FF8800"/>
<stop offset="0.5" stop-color="#44B93A"/>
<stop offset="0.75" stop-color="#20649B"/>
<stop offset="1" stop-color="#FF0000"/>
</linearGradient>
<clipPath id="clip0_331_168">
<rect width="1238" height="703" fill="white"/>
</clipPath>
</defs>
</svg>
